<svg xmlns="http://www.w3.org/2000/svg" viewBox="0 0 154 154"><g id="Capa_2" data-name="Capa 2"><g id="Capa_1-2" data-name="Capa 1"><path d="M77.5,98C48.42,98,29.83,123.55,24,132.85a76.92,76.92,0,0,0,106-.06C124.48,123.52,106.54,98,77.5,98Z" style="fill:#059669"/><circle cx="76.5" cy="45.5" r="32" style="fill:#059669"/><path d="M77.5,91c31.33,0,50.47,25.09,57.57,36.53A77,77,0,1,0,19,127.62C26.31,116.25,46.08,91,77.5,91Zm-1-84.5a39,39,0,1,1-39,39A39,39,0,0,1,76.5,6.5Z" style="fill:#059669"/><path d="M135.07,127.53C128,116.09,108.83,91,77.5,91S26.31,116.25,19,127.62c1.59,1.82,3.27,3.56,5,5.23C29.83,123.55,48.42,98,77.5,98s47,25.52,52.53,34.79Q132.67,130.29,135.07,127.53Z" style="fill:#fff"/><path d="M76.5,84.5a39,39,0,1,0-39-39A39,39,0,0,0,76.5,84.5Zm0-71a32,32,0,1,1-32,32A32,32,0,0,1,76.5,13.5Z" style="fill:#fff"/></g></g></svg>